# Blender v2.79 (sub 0) OBJ File: 'pendulum.blend'
# www.blender.org
mtllib pendulum stand.mtl
o Stand_Cube.002
v -1.481541 -0.033850 1.481541
v -1.481541 0.033850 1.481541
v -1.481541 -0.033850 -1.481541
v -1.481541 0.033850 -1.481541
v 1.481541 -0.033850 1.481541
v 1.481541 0.033850 1.481541
v 1.481541 -0.033850 -1.481541
v 1.481541 0.033850 -1.481541
v 0.045617 0.025666 -1.395000
v 0.045617 6.043097 -1.395000
v 0.045617 0.025666 -1.303766
v 0.045617 6.043097 -1.303766
v -0.045617 0.025666 -1.395000
v -0.045617 6.043097 -1.395000
v -0.045617 0.025666 -1.303766
v -0.045617 6.043097 -1.303766
v 0.045617 5.886394 -1.395000
v 0.045617 5.886394 -1.303766
v -0.045617 5.886394 -1.303766
v -0.045617 5.886394 -1.395000
v 0.045617 6.043097 0.872726
v -0.045617 6.043097 0.872726
v 0.045617 5.886394 0.872726
v -0.045617 5.886394 0.872726
vn -1.0000 0.0000 0.0000
vn 0.0000 0.0000 -1.0000
vn 1.0000 0.0000 0.0000
vn 0.0000 0.0000 1.0000
vn 0.0000 -1.0000 0.0000
vn 0.0000 1.0000 0.0000
usemtl Material.001
s off
f 1//1 2//1 4//1 3//1
f 3//2 4//2 8//2 7//2
f 7//3 8//3 6//3 5//3
f 5//4 6//4 2//4 1//4
f 3//5 7//5 5//5 1//5
f 8//6 4//6 2//6 6//6
f 17//3 10//3 12//3 18//3
f 18//3 12//3 21//3 23//3
f 19//1 16//1 14//1 20//1
f 20//2 14//2 10//2 17//2
f 11//5 15//5 13//5 9//5
f 16//6 12//6 10//6 14//6
f 13//2 20//2 17//2 9//2
f 15//1 19//1 20//1 13//1
f 11//4 18//4 19//4 15//4
f 9//3 17//3 18//3 11//3
f 23//4 21//4 22//4 24//4
f 19//5 18//5 23//5 24//5
f 12//6 16//6 22//6 21//6
f 16//1 19//1 24//1 22//1
