# Blender v2.79 (sub 0) OBJ File: ''
# www.blender.org
mtllib string1.mtl
o String1_Cylinder.001
v -0.001486 -4.607618 -0.025003
v -0.001486 -0.001259 -0.025002
v 0.019727 -0.001259 -0.016215
v 0.019727 -4.607618 -0.016216
v 0.028514 -0.001259 0.004998
v 0.028514 -4.607618 0.004997
v 0.019727 -0.001259 0.026211
v 0.019727 -4.607618 0.026210
v -0.001486 -0.001259 0.034998
v -0.001486 -4.607618 0.034997
v -0.022699 -0.001259 0.026211
v -0.022699 -4.607618 0.026210
v -0.031486 -0.001259 0.004998
v -0.031486 -4.607618 0.004997
v -0.022699 -0.001259 -0.016215
v -0.022699 -4.607618 -0.016216
v 0.000410 -4.764980 -0.039647
v 0.000410 -4.743302 -0.072090
v 0.050410 -4.743302 -0.051379
v 0.027470 -4.764980 -0.028439
v 0.000410 -4.710860 -0.093767
v 0.000410 -4.672592 -0.101379
v 0.071121 -4.672592 -0.072090
v 0.065738 -4.710860 -0.066707
v 0.000410 -4.634323 -0.093767
v 0.000410 -4.601881 -0.072090
v 0.050410 -4.601881 -0.051379
v 0.065738 -4.634323 -0.066707
v 0.000410 -4.580204 -0.039647
v 0.000410 -4.572592 -0.001379
v 0.027470 -4.580204 -0.028439
v 0.000410 -4.772592 -0.001379
v 0.071121 -4.601881 -0.001379
v 0.092798 -4.634323 -0.001379
v 0.038679 -4.580204 -0.001379
v 0.038679 -4.764980 -0.001379
v 0.092798 -4.710860 -0.001379
v 0.071121 -4.743302 -0.001379
v 0.100410 -4.672592 -0.001379
v 0.027470 -4.764980 0.025681
v 0.065738 -4.710860 0.063949
v 0.050410 -4.743302 0.048621
v 0.065738 -4.634323 0.063949
v 0.071121 -4.672592 0.069332
v 0.027470 -4.580204 0.025681
v 0.050410 -4.601881 0.048621
v 0.000410 -4.580204 0.036889
v 0.000410 -4.601881 0.069332
v 0.000410 -4.743302 0.069332
v 0.000410 -4.764980 0.036889
v 0.000410 -4.672592 0.098621
v 0.000410 -4.710860 0.091009
v 0.000410 -4.634323 0.091009
v -0.049590 -4.743302 0.048621
v -0.026650 -4.764980 0.025681
v -0.070300 -4.672592 0.069332
v -0.064918 -4.710860 0.063949
v -0.049590 -4.601881 0.048621
v -0.064918 -4.634323 0.063949
v -0.026650 -4.580204 0.025681
v -0.037858 -4.580204 -0.001379
v -0.037858 -4.764980 -0.001379
v -0.091978 -4.710860 -0.001379
v -0.070300 -4.743302 -0.001379
v -0.091978 -4.634323 -0.001379
v -0.099590 -4.672592 -0.001379
v -0.070300 -4.601881 -0.001379
v -0.064918 -4.710860 -0.066707
v -0.049590 -4.743302 -0.051379
v -0.064918 -4.634323 -0.066707
v -0.070300 -4.672592 -0.072090
v -0.026650 -4.580204 -0.028439
v -0.049590 -4.601881 -0.051379
v -0.026650 -4.764980 -0.028439
vn 0.3827 0.0000 -0.9239
vn 0.9239 0.0000 -0.3827
vn 0.9239 -0.0000 0.3827
vn 0.3827 -0.0000 0.9239
vn -0.3827 -0.0000 0.9239
vn -0.9239 -0.0000 0.3827
vn 0.0000 1.0000 0.0000
vn -0.9239 0.0000 -0.3827
vn -0.3827 0.0000 -0.9239
vn 0.0000 -1.0000 0.0000
vn 0.2243 -0.8103 -0.5414
vn 0.3764 -0.1808 -0.9087
vn 0.3256 0.5253 -0.7861
vn 0.0805 0.9776 -0.1945
vn 0.0805 -0.9776 -0.1945
vn 0.3256 -0.5253 -0.7861
vn 0.3764 0.1807 -0.9087
vn 0.2243 0.8103 -0.5414
vn 0.7861 0.5253 -0.3256
vn 0.1944 0.9776 -0.0805
vn 0.1945 -0.9776 -0.0806
vn 0.7862 -0.5253 -0.3256
vn 0.9087 0.1807 -0.3764
vn 0.5414 0.8103 -0.2243
vn 0.5414 -0.8103 -0.2243
vn 0.9087 -0.1808 -0.3764
vn 0.1945 -0.9776 0.0806
vn 0.7862 -0.5253 0.3256
vn 0.9087 0.1807 0.3764
vn 0.5414 0.8103 0.2243
vn 0.5414 -0.8103 0.2243
vn 0.9087 -0.1808 0.3764
vn 0.7862 0.5253 0.3256
vn 0.1944 0.9776 0.0805
vn 0.2243 0.8103 0.5414
vn 0.2243 -0.8103 0.5414
vn 0.3764 -0.1808 0.9087
vn 0.3256 0.5253 0.7861
vn 0.0805 0.9776 0.1945
vn 0.0805 -0.9776 0.1945
vn 0.3256 -0.5253 0.7862
vn 0.3764 0.1807 0.9087
vn -0.2243 -0.8103 0.5414
vn -0.3764 -0.1808 0.9087
vn -0.3256 0.5253 0.7861
vn -0.0805 0.9776 0.1945
vn -0.0805 -0.9776 0.1945
vn -0.3256 -0.5253 0.7861
vn -0.3764 0.1807 0.9087
vn -0.2243 0.8103 0.5414
vn -0.1945 0.9776 0.0806
vn -0.1945 -0.9776 0.0805
vn -0.7861 -0.5253 0.3256
vn -0.9087 0.1807 0.3764
vn -0.5414 0.8103 0.2242
vn -0.5414 -0.8103 0.2243
vn -0.9087 -0.1807 0.3764
vn -0.7861 0.5253 0.3256
vn -0.7861 -0.5253 -0.3256
vn -0.9087 0.1807 -0.3764
vn -0.5414 0.8103 -0.2243
vn -0.5414 -0.8103 -0.2243
vn -0.9087 -0.1807 -0.3764
vn -0.7861 0.5253 -0.3256
vn -0.1945 0.9776 -0.0806
vn -0.1945 -0.9776 -0.0805
vn -0.2243 -0.8103 -0.5414
vn -0.3764 -0.1807 -0.9087
vn -0.3256 0.5253 -0.7861
vn -0.0805 0.9776 -0.1945
vn -0.0805 -0.9776 -0.1945
vn -0.3256 -0.5253 -0.7862
vn -0.3764 0.1807 -0.9087
vn -0.2243 0.8103 -0.5414
usemtl None
s 1
f 1//1 2//1 3//1 4//1
f 4//2 3//2 5//2 6//2
f 6//3 5//3 7//3 8//3
f 8//4 7//4 9//4 10//4
f 10//5 9//5 11//5 12//5
f 12//6 11//6 13//6 14//6
f 3//7 2//7 15//7 13//7 11//7 9//7 7//7 5//7
f 14//8 13//8 15//8 16//8
f 16//9 15//9 2//9 1//9
f 1//10 4//10 6//10 8//10 10//10 12//10 14//10 16//10
f 17//11 18//11 19//11 20//11
f 21//12 22//12 23//12 24//12
f 25//13 26//13 27//13 28//13
f 29//14 30//14 31//14
f 32//15 17//15 20//15
f 18//16 21//16 24//16 19//16
f 22//17 25//17 28//17 23//17
f 26//18 29//18 31//18 27//18
f 28//19 27//19 33//19 34//19
f 31//20 30//20 35//20
f 32//21 20//21 36//21
f 19//22 24//22 37//22 38//22
f 23//23 28//23 34//23 39//23
f 27//24 31//24 35//24 33//24
f 20//25 19//25 38//25 36//25
f 24//26 23//26 39//26 37//26
f 32//27 36//27 40//27
f 38//28 37//28 41//28 42//28
f 39//29 34//29 43//29 44//29
f 33//30 35//30 45//30 46//30
f 36//31 38//31 42//31 40//31
f 37//32 39//32 44//32 41//32
f 34//33 33//33 46//33 43//33
f 35//34 30//34 45//34
f 46//35 45//35 47//35 48//35
f 40//36 42//36 49//36 50//36
f 41//37 44//37 51//37 52//37
f 43//38 46//38 48//38 53//38
f 45//39 30//39 47//39
f 32//40 40//40 50//40
f 42//41 41//41 52//41 49//41
f 44//42 43//42 53//42 51//42
f 50//43 49//43 54//43 55//43
f 52//44 51//44 56//44 57//44
f 53//45 48//45 58//45 59//45
f 47//46 30//46 60//46
f 32//47 50//47 55//47
f 49//48 52//48 57//48 54//48
f 51//49 53//49 59//49 56//49
f 48//50 47//50 60//50 58//50
f 60//51 30//51 61//51
f 32//52 55//52 62//52
f 54//53 57//53 63//53 64//53
f 56//54 59//54 65//54 66//54
f 58//55 60//55 61//55 67//55
f 55//56 54//56 64//56 62//56
f 57//57 56//57 66//57 63//57
f 59//58 58//58 67//58 65//58
f 64//59 63//59 68//59 69//59
f 66//60 65//60 70//60 71//60
f 67//61 61//61 72//61 73//61
f 62//62 64//62 69//62 74//62
f 63//63 66//63 71//63 68//63
f 65//64 67//64 73//64 70//64
f 61//65 30//65 72//65
f 32//66 62//66 74//66
f 74//67 69//67 18//67 17//67
f 68//68 71//68 22//68 21//68
f 70//69 73//69 26//69 25//69
f 72//70 30//70 29//70
f 32//71 74//71 17//71
f 69//72 68//72 21//72 18//72
f 71//73 70//73 25//73 22//73
f 73//74 72//74 29//74 26//74
